<svg width="463" height="437" viewBox="0 0 463 437" fill="none" xmlns="http://www.w3.org/2000/svg">
<rect x="72" y="75" width="242" height="286" rx="8" fill="#F2F2F2"/>
<path d="M307 272V298.915L279.03 302.563L275.823 302.981L273.926 305.6C269.917 311.135 264.732 318.318 259.124 326.124C246.365 343.884 231.23 365.129 222.855 377.424L174.68 337.713L155.271 321.713L152.763 319.646L149.54 320.062L80.5 328.97V287.5V281.767L74.968 280.263L17.968 264.763L8.5 262.188V272V419.5V428.033L16.9624 426.938L372.462 380.938L379 380.092V373.5V215.5V197.506L366.22 210.173L309.22 266.673L307 268.874V272Z" fill="#17A2B8" stroke="white" stroke-width="15"/>
<path d="M8 225V243.45L20.8729 230.233L76.8729 172.733L79 170.549V167.5V122.507L306 90.145V93V115.378L319.485 97.5195L374.985 24.0195L385.755 9.75643L368.032 12.0627L14.5322 58.0627L8 58.9127V65.5V225Z" fill="#EE420C" stroke="white" stroke-width="15"/>
<path d="M75.0646 188.013L19.4558 245.846C17.0486 248.349 17.8642 252.484 21.0418 253.886L31.5 258.5C140.29 294.763 198.737 340.403 217.207 362.271C218.403 363.687 221.897 363.314 222.851 361.725C231.392 347.497 260.574 308.283 267 301C274.5 292.5 315.5 249 316.5 247C317.3 245.4 356.833 208 376.5 189.5L457.959 117.145C459.945 115.381 460.205 112.372 458.551 110.294L391.614 26.1702C389.55 23.5759 385.578 23.6725 383.642 26.3641L209.5 268.5C182.665 218.329 112.531 194.188 79.7123 186.608C78.0215 186.217 76.2675 186.762 75.0646 188.013Z" fill="#07AD07" stroke="white" stroke-width="3"/>
<path d="M91.5 199.5L31.5 258.5L11.4164 253.372C9.91151 252.988 9.39983 251.11 10.5019 250.015L78.7619 182.226C79.8584 181.137 81.4018 180.611 82.9302 180.839C143.406 189.866 192.06 240.83 209 265.5L384.033 25.9293C386.01 23.224 390.036 23.1901 392.058 25.8618L402 39L219 288.5C198.2 233.3 125.333 206.167 91.5 199.5Z" fill="#029202" stroke="white" stroke-width="3"/>
<path d="M150 328.5L73.5 337.5V356.5L170 344L150 328.5Z" fill="#098DB0"/>
<path d="M314.5 325L265.5 330.5L280 309.5L314.5 305.5V325Z" fill="#098DB0"/>
</svg>
